HIERARCHY
ROOT Root
{
  OFFSET 0.0 0.0 0.0
  CHANNELS 6 Xposition Yposition Zposition Zrotation Yrotation Xrotation
  JOINT Hips
  {
    OFFSET 0.0 100.0 0.0
    CHANNELS 6 Xposition Yposition Zposition Zrotation Yrotation Xrotation
    JOINT Spine1
    {
      OFFSET -0.013727 5.003763 -0.053727
      CHANNELS 3 Zrotation Yrotation Xrotation
      JOINT Spine2
      {
        OFFSET -0.0 7.125301 -0.029825
        CHANNELS 3 Zrotation Yrotation Xrotation
        JOINT Chest
        {
          OFFSET -1e-06 7.550063 -0.815971
          CHANNELS 3 Zrotation Yrotation Xrotation
          JOINT Neck1
          {
            OFFSET -0.181677 26.311295 -0.553348
            CHANNELS 3 Zrotation Yrotation Xrotation
            JOINT Neck2
            {
              OFFSET -3e-06 7.709397 2.302585
              CHANNELS 3 Zrotation Yrotation Xrotation
              JOINT Head
              {
                OFFSET -5e-06 6.128916 1.953709
                CHANNELS 3 Zrotation Yrotation Xrotation
                JOINT HeadEnd
                {
                  OFFSET 0.003598 16.065403 -1.835379
                  CHANNELS 3 Zrotation Yrotation Xrotation
                }
                JOINT Jaw
                {
                  OFFSET 0.002637 0.475592 3.094941
                  CHANNELS 3 Zrotation Yrotation Xrotation
                }
                JOINT LeftEye
                {
                  OFFSET 3.206381 5.380205 7.586883
                  CHANNELS 3 Zrotation Yrotation Xrotation
                }
                JOINT RightEye
                {
                  OFFSET -3.22244 5.361869 7.558234
                  CHANNELS 3 Zrotation Yrotation Xrotation
                }
              }
            }
          }
          JOINT LeftShoulder
          {
            OFFSET 1.621652 23.237164 5.113413
            CHANNELS 3 Zrotation Yrotation Xrotation
            JOINT LeftArm
            {
              OFFSET 14.919846 2e-06 -5.502326
              CHANNELS 3 Zrotation Yrotation Xrotation
              JOINT LeftForeArm
              {
                OFFSET 28.739307 0.0 -0.002588
                CHANNELS 3 Zrotation Yrotation Xrotation
                JOINT LeftHand
                {
                  OFFSET 27.093981 -1e-06 0.002609
                  CHANNELS 3 Zrotation Yrotation Xrotation
                  JOINT LeftHandThumb1
                  {
                    OFFSET 2.276482 -1.392045 3.191413
                    CHANNELS 3 Zrotation Yrotation Xrotation
                    JOINT LeftHandThumb2
                    {
                      OFFSET 4.012836 -1.828127 1.641654
                      CHANNELS 3 Zrotation Yrotation Xrotation
                      JOINT LeftHandThumb3
                      {
                        OFFSET 2.798515 0.0 -3e-06
                        CHANNELS 3 Zrotation Yrotation Xrotation
                        JOINT LeftHandThumbEnd
                        {
                          OFFSET 3.180793 -4e-06 4e-06
                          CHANNELS 3 Zrotation Yrotation Xrotation
                        }
                      }
                    }
                  }
                  JOINT LeftHandIndex1
                  {
                    OFFSET 3.247555 -0.531998 2.296169
                    CHANNELS 3 Zrotation Yrotation Xrotation
                    JOINT LeftHandIndex2
                    {
                      OFFSET 6.364578 0.01206 0.1786
                      CHANNELS 3 Zrotation Yrotation Xrotation
                      JOINT LeftHandIndex3
                      {
                        OFFSET 3.662364 0.0 0.0
                        CHANNELS 3 Zrotation Yrotation Xrotation
                        JOINT LeftHandIndex4
                        {
                          OFFSET 2.329242 4e-06 4e-06
                          CHANNELS 3 Zrotation Yrotation Xrotation
                          JOINT LeftHandIndexEnd
                          {
                            OFFSET 2.759615 -0.180537 -0.113024
                            CHANNELS 3 Zrotation Yrotation Xrotation
                          }
                        }
                      }
                    }
                  }
                  JOINT LeftHandMiddle1
                  {
                    OFFSET 3.163495 0.240981 1.000332
                    CHANNELS 3 Zrotation Yrotation Xrotation
                    JOINT LeftHandMiddle2
                    {
                      OFFSET 6.19078 -0.259278 -1.002548
                      CHANNELS 3 Zrotation Yrotation Xrotation
                      JOINT LeftHandMiddle3
                      {
                        OFFSET 4.35652 -4e-06 -1e-06
                        CHANNELS 3 Zrotation Yrotation Xrotation
                        JOINT LeftHandMiddle4
                        {
                          OFFSET 2.996877 -8e-06 0.0
                          CHANNELS 3 Zrotation Yrotation Xrotation
                          JOINT LeftHandMiddleEnd
                          {
                            OFFSET 2.304287 -0.294569 -0.031741
                            CHANNELS 3 Zrotation Yrotation Xrotation
                          }
                        }
                      }
                    }
                  }
                  JOINT LeftHandRing1
                  {
                    OFFSET 2.882643 -0.053652 -0.322543
                    CHANNELS 3 Zrotation Yrotation Xrotation
                    JOINT LeftHandRing2
                    {
                      OFFSET 5.854541 -0.486202 -1.373841
                      CHANNELS 3 Zrotation Yrotation Xrotation
                      JOINT LeftHandRing3
                      {
                        OFFSET 4.350578 0.0 3e-06
                        CHANNELS 3 Zrotation Yrotation Xrotation
                        JOINT LeftHandRing4
                        {
                          OFFSET 2.651321 7e-06 2e-06
                          CHANNELS 3 Zrotation Yrotation Xrotation
                          JOINT LeftHandRingEnd
                          {
                            OFFSET 1.936105 0.077687 -7.1e-05
                            CHANNELS 3 Zrotation Yrotation Xrotation
                          }
                        }
                      }
                    }
                  }
                  JOINT LeftHandPinky1
                  {
                    OFFSET 2.8655 -0.310005 -1.600378
                    CHANNELS 3 Zrotation Yrotation Xrotation
                    JOINT LeftHandPinky2
                    {
                      OFFSET 5.087849 -1.331141 -1.77123
                      CHANNELS 3 Zrotation Yrotation Xrotation
                      JOINT LeftHandPinky3
                      {
                        OFFSET 3.070974 4e-06 0.0
                        CHANNELS 3 Zrotation Yrotation Xrotation
                        JOINT LeftHandPinky4
                        {
                          OFFSET 1.549672 0.0 1e-06
                          CHANNELS 3 Zrotation Yrotation Xrotation
                          JOINT LeftHandPinkyEnd
                          {
                            OFFSET 1.944893 -0.157802 0.057219
                            CHANNELS 3 Zrotation Yrotation Xrotation
                          }
                        }
                      }
                    }
                  }
                }
              }
            }
          }
          JOINT RightShoulder
          {
            OFFSET -1.380118 23.180309 5.214158
            CHANNELS 3 Zrotation Yrotation Xrotation
            JOINT RightArm
            {
              OFFSET -15.037196 1.2e-05 -5.545604
              CHANNELS 3 Zrotation Yrotation Xrotation
              JOINT RightForeArm
              {
                OFFSET -28.736639 2e-06 -0.002597
                CHANNELS 3 Zrotation Yrotation Xrotation
                JOINT RightHand
                {
                  OFFSET -27.133619 -0.0 0.002613
                  CHANNELS 3 Zrotation Yrotation Xrotation
                  JOINT RightHandThumb1
                  {
                    OFFSET -2.274032 -1.383988 3.163127
                    CHANNELS 3 Zrotation Yrotation Xrotation
                    JOINT RightHandThumb2
                    {
                      OFFSET -4.011429 -1.827466 1.640914
                      CHANNELS 3 Zrotation Yrotation Xrotation
                      JOINT RightHandThumb3
                      {
                        OFFSET -2.794935 -4e-06 -3e-06
                        CHANNELS 3 Zrotation Yrotation Xrotation
                        JOINT RightHandThumbEnd
                        {
                          OFFSET -3.183852 4e-06 1e-06
                          CHANNELS 3 Zrotation Yrotation Xrotation
                        }
                      }
                    }
                  }
                  JOINT RightHandIndex1
                  {
                    OFFSET -3.253266 -0.520057 2.282866
                    CHANNELS 3 Zrotation Yrotation Xrotation
                    JOINT RightHandIndex2
                    {
                      OFFSET -6.341917 0.012471 0.178266
                      CHANNELS 3 Zrotation Yrotation Xrotation
                      JOINT RightHandIndex3
                      {
                        OFFSET -3.654871 -8e-06 -0.0
                        CHANNELS 3 Zrotation Yrotation Xrotation
                        JOINT RightHandIndex4
                        {
                          OFFSET -2.327586 0.0 1e-06
                          CHANNELS 3 Zrotation Yrotation Xrotation
                          JOINT RightHandIndexEnd
                          {
                            OFFSET -2.76179 -0.180656 -0.113078
                            CHANNELS 3 Zrotation Yrotation Xrotation
                          }
                        }
                      }
                    }
                  }
                  JOINT RightHandMiddle1
                  {
                    OFFSET -3.168106 0.246593 1.00103
                    CHANNELS 3 Zrotation Yrotation Xrotation
                    JOINT RightHandMiddle2
                    {
                      OFFSET -6.180828 -0.258836 -1.000895
                      CHANNELS 3 Zrotation Yrotation Xrotation
                      JOINT RightHandMiddle3
                      {
                        OFFSET -4.348901 0.0 -0.0
                        CHANNELS 3 Zrotation Yrotation Xrotation
                        JOINT RightHandMiddle4
                        {
                          OFFSET -3.00024 -4e-06 -2e-06
                          CHANNELS 3 Zrotation Yrotation Xrotation
                          JOINT RightHandMiddleEnd
                          {
                            OFFSET -2.30252 -0.29437 -0.031706
                            CHANNELS 3 Zrotation Yrotation Xrotation
                          }
                        }
                      }
                    }
                  }
                  JOINT RightHandRing1
                  {
                    OFFSET -2.88569 -0.067952 -0.308858
                    CHANNELS 3 Zrotation Yrotation Xrotation
                    JOINT RightHandRing2
                    {
                      OFFSET -5.854198 -0.48613 -1.373731
                      CHANNELS 3 Zrotation Yrotation Xrotation
                      JOINT RightHandRing3
                      {
                        OFFSET -4.33881 -4e-06 -0.0
                        CHANNELS 3 Zrotation Yrotation Xrotation
                        JOINT RightHandRing4
                        {
                          OFFSET -2.654903 -4e-06 4e-06
                          CHANNELS 3 Zrotation Yrotation Xrotation
                          JOINT RightHandRingEnd
                          {
                            OFFSET -1.933568 0.077527 -5.2e-05
                            CHANNELS 3 Zrotation Yrotation Xrotation
                          }
                        }
                      }
                    }
                  }
                  JOINT RightHandPinky1
                  {
                    OFFSET -2.866425 -0.342796 -1.584145
                    CHANNELS 3 Zrotation Yrotation Xrotation
                    JOINT RightHandPinky2
                    {
                      OFFSET -5.091371 -1.332055 -1.772385
                      CHANNELS 3 Zrotation Yrotation Xrotation
                      JOINT RightHandPinky3
                      {
                        OFFSET -3.062664 -4e-06 1e-06
                        CHANNELS 3 Zrotation Yrotation Xrotation
                        JOINT RightHandPinky4
                        {
                          OFFSET -1.546529 4e-06 -2e-06
                          CHANNELS 3 Zrotation Yrotation Xrotation
                          JOINT RightHandPinkyEnd
                          {
                            OFFSET -1.945119 -0.157718 0.057211
                            CHANNELS 3 Zrotation Yrotation Xrotation
                          }
                        }
                      }
                    }
                  }
                }
              }
            }
          }
        }
      }
    }
    JOINT LeftLeg
    {
      OFFSET 10.043214 -8.434526 2.595655
      CHANNELS 3 Zrotation Yrotation Xrotation
      JOINT LeftShin
      {
        OFFSET -1e-06 -43.221752 -0.802913
        CHANNELS 3 Zrotation Yrotation Xrotation
        JOINT LeftFoot
        {
          OFFSET 1e-06 -42.155094 -3.481523
          CHANNELS 3 Zrotation Yrotation Xrotation
          JOINT LeftToeBase
          {
            OFFSET 0.0 -5.059472 13.231529
            CHANNELS 3 Zrotation Yrotation Xrotation
            JOINT LeftToeEnd
            {
              OFFSET -0.009607 -1.647619 6.513017
              CHANNELS 3 Zrotation Yrotation Xrotation
            }
          }
        }
      }
    }
    JOINT RightLeg
    {
      OFFSET -10.047278 -8.29526 2.620317
      CHANNELS 3 Zrotation Yrotation Xrotation
      JOINT RightShin
      {
        OFFSET 1e-06 -43.362206 -0.805556
        CHANNELS 3 Zrotation Yrotation Xrotation
        JOINT RightFoot
        {
          OFFSET 2e-06 -42.117393 -3.478398
          CHANNELS 3 Zrotation Yrotation Xrotation
          JOINT RightToeBase
          {
            OFFSET -0.0 -5.079609 13.284196
            CHANNELS 3 Zrotation Yrotation Xrotation
            JOINT RightToeEnd
            {
              OFFSET 0.009532 -1.634378 6.460591
              CHANNELS 3 Zrotation Yrotation Xrotation
            }
          }
        }
      }
    }
  }
}
MOTION
Frames: 4
Frame Time: 0.03333333333333333
0.0 0.0 0.0 0.0 -0.0 0.0 1.835783 102.253761 3.553857 -0.113587 -0.71615 9.715449 -2.033033 -2.365046 -1.038066 -0.533909 -6.558972 -5.610003 0.053806 -9.704033 11.545367 2.508088 1.85012 -1.295234 -0.164539 1.588093 -3.868804 -0.515668 2.183146 -20.712494 7.7e-05 -2.3e-05 6e-06 0.003124 -0.055292 0.045933 0.614737 -3.803463 -10.733508 -0.60969 3.701458 -10.645855 7.241644 -17.096428 13.361876 -51.429329 -26.514553 -3.499497 -177.268158 -52.298958 178.081345 3.274379 -6.04239 -14.158526 -5.882113 9.861293 0.702591 -10.936881 -0.360573 7.156215 -1e-06 8.774831 -1e-06 -16.085609 17.875074 6.226354 -1.844033 2.498505 -2.507278 -10.163609 4.678948 4.621113 -20.976038 1e-06 6e-06 -21.226301 2.451704 -3.594001 2e-06 -6e-06 -1e-06 -1.362683 2.240798 -0.746323 -21.33493 0.584914 3.008332 -13.821225 -1e-06 3e-06 -23.887188 -0.249072 -0.839482 -60.159161 2.545795 -1.660493 -0.294025 1.679687 0.833257 -14.218219 0.093218 1.300585 -34.212074 -0.287554 0.967176 -20.03323 0.964546 1.212844 2e-06 1e-06 1e-06 -3.440391 0.788235 0.501658 -15.928198 -3.167308 2.999712 -6.338831 -1e-06 3e-06 -18.123461 3.648188 -4.905671 -4e-06 -1e-06 -2e-06 4.483725 -1.361092 22.357563 60.211937 -29.372984 10.743036 176.717133 58.290024 177.389709 2.521316 7.388193 -0.321264 2.243541 -5.255035 -3.180157 14.282889 -0.826596 6.952503 -3e-06 -12.690607 1e-06 15.912512 -17.540939 2.852131 1.665666 -1.95592 -2.878299 4.727798 -4.17059 4.993926 11.020528 3e-06 -2e-06 12.109053 -3.735717 -2.866787 1e-06 -1e-06 0.0 1.291986 -1.928549 -1.498089 14.800129 0.567468 3.865607 14.242572 -1.341736 -6.660661 19.631969 0.143929 -0.648247 49.731384 -0.993532 -6.123113 0.353029 -1.511153 -0.031939 20.222788 3.68431 2.316628 18.787273 4e-06 -2e-06 10.751627 -0.479867 1.397906 0.0 -0.0 -1e-06 3.273807 0.305946 -0.580111 21.486813 11.830376 2.26613 8.16293 3e-06 -1e-06 18.399086 -3.798986 -4.940578 2e-06 -0.0 -2e-06 3.770932 5.054593 11.557016 -0.047288 -0.201747 12.446814 -7.55935 0.450272 13.016185 1.876921 -1.622812 -15.288356 -0.0 0.0 2e-06 -1.947063 1.413869 -41.125977 -0.28529 -0.166814 50.996449 1.523219 -14.416627 -5.977326 -1.423534 1.028563 -3.690213 0.0 0.0 -1e-06 
0.0 0.0 0.0 0.0 -0.0 0.0 0.916511 103.957603 8.479771 0.622902 -1.878311 9.905009 -2.108359 -2.494453 -2.010453 -0.495068 -6.896179 -5.912897 -0.279819 -9.911904 10.866051 1.741308 2.299412 -1.534097 -0.188121 2.288798 -3.822612 -0.454114 3.370929 -19.097748 7.7e-05 -2.2e-05 6e-06 -0.009448 -0.062024 0.031239 0.618779 -3.815205 -10.736433 -0.638525 3.687693 -10.646598 10.106464 -17.446886 12.661853 -54.253407 -24.885818 -2.699096 -177.304779 -50.538162 178.01239 2.78894 -6.150649 -13.427659 -5.88211 9.861292 0.702591 -10.936877 -0.360576 7.156212 1e-06 8.774829 -3e-06 -15.411866 17.66589 6.343775 -1.844032 2.498505 -2.507279 -10.163605 4.678947 4.621112 -20.976034 -2e-06 3e-06 -21.226295 2.4517 -3.594002 -0.0 -5e-06 -1e-06 -1.362683 2.2408 -0.746325 -21.334927 0.584912 3.008329 -13.821221 -2e-06 3e-06 -23.887182 -0.249075 -0.839483 -59.901886 2.481428 -1.408556 -0.294026 1.679688 0.833256 -14.218217 0.093215 1.300584 -34.212074 -0.287561 0.967175 -20.033226 0.96454 1.212846 1e-06 1e-06 1e-06 -3.440391 0.788234 0.501658 -15.928196 -3.16731 2.999709 -6.33883 -2e-06 3e-06 -18.123457 3.648185 -4.90567 -4e-06 -1e-06 -3e-06 1.041569 -0.691058 22.937183 62.709045 -31.209156 11.033655 178.394485 58.110008 178.549759 3.637236 6.855899 -2.846879 2.243542 -5.25504 -3.180159 14.282889 -0.826595 6.952503 -1e-06 -12.69061 -1e-06 15.975094 -17.480667 2.722979 1.665666 -1.955922 -2.8783 4.727798 -4.17059 4.993925 11.020526 1e-06 -3e-06 12.109052 -3.735719 -2.866788 1e-06 -1e-06 0.0 1.291986 -1.928552 -1.498089 14.800125 0.567469 3.865607 14.242572 -1.341739 -6.660662 19.631966 0.143927 -0.648248 49.847088 -0.594375 -6.298329 0.353029 -1.511151 -0.03194 20.222788 3.684311 2.316628 18.78727 4e-06 -4e-06 10.751627 -0.479868 1.397904 -0.0 1e-06 -0.0 3.273807 0.305945 -0.580111 21.486809 11.830384 2.266131 8.162928 1e-06 -1e-06 18.39908 -3.798987 -4.94058 2e-06 -0.0 -2e-06 3.39365 3.348284 15.381538 -0.144512 -0.278172 12.647859 -6.61509 3.679699 19.865082 1.712913 -1.710428 -9.044275 -0.0 0.0 2e-06 -1.59626 0.059083 -36.107655 -0.246829 -0.121925 29.933615 3.198805 -10.767382 -5.343538 -1.42282 0.991102 -4.234686 -0.0 -0.0 -1e-06 
0.0 0.0 0.0 0.0 -0.0 0.0 -0.86413 104.093422 18.606846 2.54762 -3.480885 9.104198 -3.097306 -2.590379 -2.344732 -0.722439 -6.806647 -6.004748 -0.720888 -9.453155 10.597227 0.781402 2.717198 -1.700876 0.014443 2.957095 -3.762552 -0.525163 4.18232 -18.215879 7.7e-05 -2.2e-05 6e-06 0.008595 0.029218 0.026543 0.652885 -3.725794 -10.761182 -0.636998 3.779538 -10.676304 11.810204 -17.079912 12.269513 -56.790218 -22.8325 -0.148018 -178.470444 -49.95686 178.795456 0.842534 -7.236791 -13.45815 -5.882107 9.861286 0.702588 -10.936875 -0.360576 7.156205 1e-06 8.774826 -0.0 -15.472433 17.674992 6.232059 -1.844033 2.498505 -2.507278 -10.163602 4.678946 4.621112 -20.97603 -5e-06 1e-06 -21.226292 2.451695 -3.593999 1e-06 -5e-06 -1e-06 -1.362681 2.240798 -0.746324 -21.334921 0.584908 3.008323 -13.821217 -4e-06 2e-06 -23.887177 -0.24908 -0.839479 -59.662701 2.54335 -1.066409 -0.294024 1.679689 0.833255 -14.218214 0.093214 1.300579 -34.212063 -0.287567 0.967172 -20.033222 0.964534 1.212845 -1e-06 1e-06 1e-06 -3.440389 0.788234 0.501656 -15.928192 -3.167312 2.999709 -6.338828 -2e-06 1e-06 -18.123453 3.64818 -4.905671 -3e-06 0.0 -2e-06 -0.55802 -0.200779 23.255596 64.424629 -31.058796 10.891303 178.208542 56.955212 178.876068 4.978191 6.130907 -6.26606 2.243541 -5.255035 -3.180157 14.28289 -0.826595 6.9525 -2e-06 -12.6906 -0.0 15.602645 -17.61939 2.794363 1.665667 -1.955923 -2.878299 4.727798 -4.170588 4.993923 11.020526 4e-06 -1e-06 12.109052 -3.735714 -2.866784 1e-06 -1e-06 1e-06 1.291986 -1.92855 -1.498089 14.800129 0.567468 3.865608 14.242574 -1.341738 -6.660655 19.631969 0.143923 -0.648245 49.762394 -0.670972 -6.308141 0.353029 -1.511152 -0.03194 20.222794 3.68431 2.31663 18.78727 4e-06 -2e-06 10.751627 -0.479868 1.397905 -1e-06 -0.0 0.0 3.273807 0.305949 -0.580111 21.486813 11.830376 2.266133 8.162928 2e-06 -0.0 18.399084 -3.798984 -4.940577 1e-06 -0.0 -1e-06 1.3411 2.566566 17.079025 -0.145048 -0.376166 21.126745 -5.352705 6.802904 17.460045 1.723796 -1.863632 -4.666457 0.0 -0.0 3e-06 -2.515329 -0.95335 -31.289541 -0.137165 -0.180556 13.757308 5.493071 -7.290466 -7.13432 -1.399211 1.009437 -4.142726 -0.0 -0.0 0.0 
0.0 0.0 0.0 0.0 -0.0 0.0 -2.880936 103.107857 28.692717 3.575668 -5.263955 7.975998 -3.531501 -2.439168 -2.209853 -0.841502 -6.273349 -5.939552 -0.969662 -8.695951 10.678239 -0.283428 3.167908 -1.741441 0.153277 3.550164 -3.757703 -0.76347 4.914379 -17.88258 7.7e-05 -2.3e-05 6e-06 0.031852 0.139133 0.01663 0.673176 -3.605257 -10.703979 -0.61227 3.879257 -10.640233 11.367163 -15.934471 12.727248 -59.262787 -19.781017 2.281806 -178.714096 -51.598595 178.819092 -0.906134 -7.6723 -13.389828 -5.882111 9.861293 0.702591 -10.93688 -0.360574 7.156213 -0.0 8.774831 -0.0 -15.890342 17.995571 6.197173 -1.844034 2.498507 -2.507279 -10.16361 4.678949 4.621113 -20.97604 -1e-06 3e-06 -21.226303 2.451702 -3.594002 2e-06 -5e-06 -1e-06 -1.362683 2.240799 -0.746324 -21.334929 0.584912 3.008326 -13.821223 -1e-06 4e-06 -23.887188 -0.249077 -0.839483 -59.965313 2.531626 -1.01118 -0.294025 1.679689 0.833257 -14.218218 0.093216 1.300584 -34.212074 -0.287558 0.967173 -20.033226 0.96454 1.212845 1e-06 2e-06 -1e-06 -3.440391 0.788234 0.501658 -15.9282 -3.16731 2.999711 -6.338832 1e-06 0.0 -18.123459 3.648189 -4.905671 -4e-06 0.0 -3e-06 0.262373 0.290407 23.094181 65.205147 -27.958942 10.077833 177.086624 56.179871 178.20166 5.535991 4.949833 -8.457311 2.243543 -5.255038 -3.18016 14.282901 -0.826596 6.952508 -3e-06 -12.690615 1e-06 15.344216 -17.672779 2.689813 1.665667 -1.955921 -2.878301 4.727802 -4.170589 4.993928 11.020533 3e-06 -1e-06 12.109059 -3.735716 -2.866785 1e-06 -0.0 -0.0 1.291986 -1.928551 -1.49809 14.80014 0.56747 3.86561 14.242582 -1.341734 -6.660663 19.631985 0.143929 -0.648243 49.463139 -0.708504 -6.352777 0.353029 -1.511152 -0.03194 20.222805 3.684314 2.316632 18.787289 6e-06 -0.0 10.751635 -0.479867 1.397907 -2e-06 1e-06 -0.0 3.273809 0.305949 -0.580111 21.486832 11.830384 2.266134 8.162934 2e-06 -1e-06 18.399096 -3.798986 -4.940578 1e-06 0.0 -0.0 0.754997 3.580793 15.466241 -0.061405 -0.484888 35.057686 -5.454026 8.769235 13.431335 1.885903 -1.964926 -3.517187 -0.0 0.0 3e-06 -2.48953 -1.235136 -28.204092 -0.135621 -0.128024 7.192163 7.045427 -5.269056 -8.967605 -1.360028 1.02597 -4.248299 -0.0 0.0 -1e-06 
